<svg width="96" height="96" viewBox="0 0 96 96" fill="none" xmlns="http://www.w3.org/2000/svg">
<g opacity="0.1">
<path d="M28 72V68C28 56.9544 36.9543 48 48 48C59.0456 48 68 56.9544 68 68V72" stroke="url(#paint0_linear_514_149)" stroke-width="6" stroke-linecap="round" stroke-linejoin="round"/>
<path d="M4 72V68C4 61.3724 9.3726 56 16 56" stroke="url(#paint1_linear_514_149)" stroke-width="6" stroke-linecap="round" stroke-linejoin="round"/>
<path d="M92 72V68C92 61.3724 86.6276 56 80 56" stroke="url(#paint2_linear_514_149)" stroke-width="6" stroke-linecap="round" stroke-linejoin="round"/>
<path d="M48 48C54.6276 48 60 42.6276 60 36C60 29.3726 54.6276 24 48 24C41.3724 24 36 29.3726 36 36C36 42.6276 41.3724 48 48 48Z" stroke="url(#paint3_linear_514_149)" stroke-width="6" stroke-linecap="round" stroke-linejoin="round"/>
<path d="M16 56C20.4183 56 24 52.4184 24 48C24 43.5816 20.4183 40 16 40C11.5817 40 8 43.5816 8 48C8 52.4184 11.5817 56 16 56Z" stroke="url(#paint4_linear_514_149)" stroke-width="6" stroke-linecap="round" stroke-linejoin="round"/>
<path d="M80 56C84.4184 56 88 52.4184 88 48C88 43.5816 84.4184 40 80 40C75.5816 40 72 43.5816 72 48C72 52.4184 75.5816 56 80 56Z" stroke="url(#paint5_linear_514_149)" stroke-width="6" stroke-linecap="round" stroke-linejoin="round"/>
</g>
<path d="M38 60V58C38 52.4772 42.4772 48 48 48C53.5228 48 58 52.4772 58 58V60" stroke="white" stroke-width="3" stroke-linecap="round" stroke-linejoin="round"/>
<path d="M26 60V58C26 54.6862 28.6863 52 32 52" stroke="white" stroke-width="3" stroke-linecap="round" stroke-linejoin="round"/>
<path d="M70 60V58C70 54.6862 67.3138 52 64 52" stroke="white" stroke-width="3" stroke-linecap="round" stroke-linejoin="round"/>
<path d="M48 48C51.3138 48 54 45.3138 54 42C54 38.6863 51.3138 36 48 36C44.6862 36 42 38.6863 42 42C42 45.3138 44.6862 48 48 48Z" stroke="white" stroke-width="3" stroke-linecap="round" stroke-linejoin="round"/>
<path d="M32 52C34.2091 52 36 50.2092 36 48C36 45.7908 34.2091 44 32 44C29.7909 44 28 45.7908 28 48C28 50.2092 29.7909 52 32 52Z" stroke="white" stroke-width="3" stroke-linecap="round" stroke-linejoin="round"/>
<path d="M64 52C66.2092 52 68 50.2092 68 48C68 45.7908 66.2092 44 64 44C61.7908 44 60 45.7908 60 48C60 50.2092 61.7908 52 64 52Z" stroke="white" stroke-width="3" stroke-linecap="round" stroke-linejoin="round"/>
<defs>
<linearGradient id="paint0_linear_514_149" x1="48" y1="48" x2="48" y2="72" gradientUnits="userSpaceOnUse">
<stop stop-color="white"/>
<stop offset="1"/>
</linearGradient>
<linearGradient id="paint1_linear_514_149" x1="10" y1="56" x2="10" y2="72" gradientUnits="userSpaceOnUse">
<stop stop-color="white"/>
<stop offset="1"/>
</linearGradient>
<linearGradient id="paint2_linear_514_149" x1="86" y1="56" x2="86" y2="72" gradientUnits="userSpaceOnUse">
<stop stop-color="white"/>
<stop offset="1"/>
</linearGradient>
<linearGradient id="paint3_linear_514_149" x1="48" y1="24" x2="48" y2="48" gradientUnits="userSpaceOnUse">
<stop stop-color="white"/>
<stop offset="1"/>
</linearGradient>
<linearGradient id="paint4_linear_514_149" x1="16" y1="40" x2="16" y2="56" gradientUnits="userSpaceOnUse">
<stop stop-color="white"/>
<stop offset="1"/>
</linearGradient>
<linearGradient id="paint5_linear_514_149" x1="80" y1="40" x2="80" y2="56" gradientUnits="userSpaceOnUse">
<stop stop-color="white"/>
<stop offset="1"/>
</linearGradient>
</defs>
</svg>
